{"title":"Peter Gabriel-Still Growing Up Live 2005 DVDRip x264 AC3 5.1","uid":13530876,"size":2885086284,"categoryP":"video","categoryS":"movies","magnet":"?xt=urn:btih:4291e9f8e505721bf5640d43cd7208a583aefb47&amp;dn=Peter+Gabriel-Still+Growing+Up+Live+2005+DVDRip+x264+AC3+5.1&amp;tr=udp%3A%2F%2Ftracker.leechers-paradise.org%3A6969&amp;tr=udp%3A%2F%2Fzer0day.ch%3A1337&amp;tr=udp%3A%2F%2Fopen.demonii.com%3A1337&amp;tr=udp%3A%2F%2Ftracker.coppersurfer.tk%3A6969&amp;tr=udp%3A%2F%2Fexodus.desync.com%3A6969","seeders":0,"leechers":0,"uploader":"movieZ.freak","files":13,"time":1455413363,"description":"SOURCE: 2x DVD9 PAL\r\n\r\n \nhttp://www.imdb.com/title/tt0850698/\r\n\r\n \nhttps://en.wikipedia.org/wiki/Still_Growing_Up:_Live_%26_Unwrapped\r\n\r\n\r\n\r\n- SAMPLE: Yes\r\n\r\n- SUBTITLE: English (SRT file), German, Spanish, French, Italian, Dutch, Portuguese (muxed, selectable)\r\n\r\n- LANGUAGE / AUDIO: English, French\r\n\r\n\r\nNOTE:\r\n----------\r\n- Straight forward recordings and mixed up live performances, so you'll get pixelated parts, grainy parts and who knows what.\r\n\r\n- This is like relaxed extension of &quot;Growing Up Live&quot;\r\n\r\n- Check the sample.\r\n\r\n- Thanks and enjoy!\r\n\r\n\r\nLIVE DVD MENU SCREENSHOTS\r\n------------------------------------- \nhttp://someimage.com/YHwV\r\n\r\n\r\nLIVE SCREENSHOTS:\r\n----------------------------- \nhttp://someimage.com/o0YW\r\n\r\n\r\nUNWRAPPED DVD MENU SCREENSHOTS:\r\n---------------------------------------------------- \nhttp://someimage.com/Auda\r\n\r\n\r\nUNWRAPPED SCREENSHOTS:\r\n--------------------------------------- \nhttp://someimage.com/wRcM\r\n\r\n\r\nDIRECTORS: Anna Gabriel, Hamish Hamilton\r\n\r\n\r\nINFO:  http://someimage.com/WDTr\r\n\r\n\r\nPLOT:\r\n-----------\r\nStill Growing Up: Live &amp; Unwrapped is a DVD film by Hamish Hamilton and Peter Gabriel. It features several live performances from Gabriel's 2004 Still Growing Up tour. The film aims to show Gabriel in a more intimate setting, discarding many of the stage antics featured in Growing Up Live.\r\n\r\n************************************\r\n\r\nLIVE:\r\n-------\r\n- Duration: 1h 27mn (Live), 1h 17mn (Unwrapped)\r\n\r\n- Nominal bit rate: 1540 Kbps (Live), 1187 Kbps (Unwrapped)\r\n\r\n- Res: 720 x 404\r\n\r\n- AR: 16:9\r\n\r\n- FPS: 25.000 fps\r\n\r\n- Audio: AC3, 6 channels, 448Kbps\r\n\r\n************************************\r\n\r\nStill Growing Up Live\r\n************************\r\n\r\nGeneral\r\n----------\r\nFormat : Matroska\r\nFormat version : Version 4 / Version 2\r\nFile size : 1.20 GiB\r\nDuration : 1h 27mn\r\nOverall bit rate : 1974 Kbps\r\nEncoded date : UTC 2016-02-13 21:01:46\r\nWriting application : mkvmerge v8.8.0 ('Wind at my back') 64bit\r\nWriting library : libebml v1.3.3 + libmatroska v1.4.4\r\n\r\nVideo\r\n----------\r\nFormat : AVC\r\nFormat/Info : Advanced Video Codec\r\nFormat profile :   \r\nFormat settings, CABAC : Yes\r\nFormat settings, ReFrames : 5 frames\r\nCodec ID : V_MPEG4/ISO/AVC\r\nDuration : 1h 27mn\r\nBit rate : 1540 Kbps\r\nWidth : 720 pixels\r\nHeight : 404 pixels\r\nDisplay aspect ratio : 16:9\r\nFrame rate mode : Constant\r\nFrame rate : 25.000 fps\r\nColor space : YUV\r\nChroma subsampling : 4:2:0\r\nBit depth : 8 bits\r\nScan type : Progressive\r\nBits/(Pixel*Frame) : 0.212\r\nStream size : 927 MiB (75%)\r\nWriting library : x264 core 142\r\nEncoding settings : cabac=1 / ref=5\r\nLanguage : English\r\nDefault : Yes\r\nForced : No\r\n\r\nAudio\r\n----------\r\nFormat : AC-3\r\nFormat/Info : Audio Coding 3\r\nMode extension : CM (complete main)\r\nFormat settings, Endianness : Big\r\nCodec ID : A_AC3\r\nDuration : 1h 27mn\r\nBit rate mode : Constant\r\nBit rate : 448 Kbps\r\nChannel(s) : 6 channels\r\nChannel positions : Front: L C R, Side: L R, LFE\r\nSampling rate : 48.0 KHz\r\nCompression mode : Lossy\r\nDelay relative to video : -5ms\r\nStream size : 279 MiB (23%)\r\nTitle : Surround\r\nLanguage : English\r\nDefault : Yes\r\nForced : No\r\n\r\nText 1\r\n--------------\r\nFormat : VobSub\r\nMuxing mode : zlib\r\nCodec ID : S_VOBSUB\r\nCodec ID/Info : Picture based subtitle format used on DVDs\r\nLanguage : German\r\nDefault : No\r\nForced : No\r\n\r\nText 2\r\n-----------\r\nFormat : VobSub\r\nMuxing mode : zlib\r\nCodec ID : S_VOBSUB\r\nCodec ID/Info : Picture based subtitle format used on DVDs\r\nLanguage : Spanish\r\nDefault : No\r\nForced : No\r\n\r\nText 3\r\n------------\r\nFormat : VobSub\r\nMuxing mode : zlib\r\nCodec ID : S_VOBSUB\r\nCodec ID/Info : Picture based subtitle format used on DVDs\r\nLanguage : French\r\nDefault : No\r\nForced : No\r\n\r\nText 4\r\n------------\r\nFormat : VobSub\r\nMuxing mode : zlib\r\nCodec ID : S_VOBSUB\r\nCodec ID/Info : Picture based subtitle format used on DVDs\r\nLanguage : Italian\r\nDefault : No\r\nForced : No\r\n\r\nText 5\r\n----------\r\nFormat : VobSub\r\nMuxing mode : zlib\r\nCodec ID : S_VOBSUB\r\nCodec ID/Info : Picture based subtitle format used on DVDs\r\nLanguage : Dutch\r\nDefault : No\r\nForced : No\r\n\r\nText 6\r\n----------\r\nFormat : VobSub\r\nMuxing mode : zlib\r\nCodec ID : S_VOBSUB\r\nCodec ID/Info : Picture based subtitle format used on DVDs\r\nLanguage : Portuguese\r\nDefault : No\r\nForced : No\r\n\r\n************************************************************\r\n\r\nUnwrapped\r\n***********\r\n\r\nGeneral\r\n-----------\r\nFormat : Matroska\r\nFormat version : Version 4 / Version 2\r\nFile size : 903 MiB\r\nDuration : 1h 17mn\r\nOverall bit rate : 1635 Kbps\r\nEncoded date : UTC 2016-02-13 21:12:07\r\nWriting application : mkvmerge v8.8.0 ('Wind at my back') 64bit\r\nWriting library : libebml v1.3.3 + libmatroska v1.4.4\r\n\r\nVideo\r\n-------\r\nFormat : AVC\r\nFormat/Info : Advanced Video Codec\r\nFormat profile :   \r\nFormat settings, CABAC : Yes\r\nFormat settings, ReFrames : 5 frames\r\nCodec ID : V_MPEG4/ISO/AVC\r\nDuration : 1h 17mn\r\nBit rate : 1187 Kbps\r\nWidth : 720 pixels\r\nHeight : 404 pixels\r\nDisplay aspect ratio : 16:9\r\nFrame rate mode : Constant\r\nFrame rate : 25.000 fps\r\nColor space : YUV\r\nChroma subsampling : 4:2:0\r\nBit depth : 8 bits\r\nScan type : Progressive\r\nBits/(Pixel*Frame) : 0.163\r\nStream size : 638 MiB (71%)\r\nWriting library : x264 core 142\r\nEncoding settings : cabac=1 / ref=5\r\nLanguage : English\r\nDefault : Yes\r\nForced : No\r\n\r\nAudio\r\n----------\r\nFormat : AC-3\r\nFormat/Info : Audio Coding 3\r\nMode extension : CM (complete main)\r\nFormat settings, Endianness : Big\r\nCodec ID : A_AC3\r\nDuration : 1h 17mn\r\nBit rate mode : Constant\r\nBit rate : 448 Kbps\r\nChannel(s) : 6 channels\r\nChannel positions : Front: L C R, Side: L R, LFE\r\nSampling rate : 48.0 KHz\r\nCompression mode : Lossy\r\nStream size : 248 MiB (27%)\r\nTitle : Surround\r\nLanguage : English\r\nDefault : Yes\r\nForced : No\r\n\r\nText 1\r\n---------\r\nFormat : VobSub\r\nMuxing mode : zlib\r\nCodec ID : S_VOBSUB\r\nCodec ID/Info : Picture based subtitle format used on DVDs\r\nLanguage : German\r\nDefault : No\r\nForced : No\r\n\r\nText 2\r\n------------\r\nFormat : VobSub\r\nMuxing mode : zlib\r\nCodec ID : S_VOBSUB\r\nCodec ID/Info : Picture based subtitle format used on DVDs\r\nLanguage : Spanish\r\nDefault : No\r\nForced : No\r\n\r\nText 3\r\n------------\r\nFormat : VobSub\r\nMuxing mode : zlib\r\nCodec ID : S_VOBSUB\r\nCodec ID/Info : Picture based subtitle format used on DVDs\r\nLanguage : French\r\nDefault : No\r\nForced : No\r\n\r\nText 4\r\n-----------\r\nFormat : VobSub\r\nMuxing mode : zlib\r\nCodec ID : S_VOBSUB\r\nCodec ID/Info : Picture based subtitle format used on DVDs\r\nLanguage : Italian\r\nDefault : No\r\nForced : No\r\n\r\nText 5\r\n---------\r\nFormat : VobSub\r\nMuxing mode : zlib\r\nCodec ID : S_VOBSUB\r\nCodec ID/Info : Picture based subtitle format used on DVDs\r\nLanguage : Dutch\r\nDefault : No\r\nForced : No\r\n\r\nText 6\r\n---------\r\nFormat : VobSub\r\nMuxing mode : zlib\r\nCodec ID : S_VOBSUB\r\nCodec ID/Info : Picture based subtitle format used on DVDs\r\nLanguage : Portuguese\r\nDefault : No\r\nForced : No","torrent":{"xt":"urn:btih:4291e9f8e505721bf5640d43cd7208a583aefb47","amp;dn":"Peter+Gabriel-Still+Growing+Up+Live+2005+DVDRip+x264+AC3+5.1","amp;tr":["udp%3A%2F%2Ftracker.leechers-paradise.org%3A6969","udp%3A%2F%2Fzer0day.ch%3A1337","udp%3A%2F%2Fopen.demonii.com%3A1337","udp%3A%2F%2Ftracker.coppersurfer.tk%3A6969","udp%3A%2F%2Fexodus.desync.com%3A6969"],"infoHash":"4291e9f8e505721bf5640d43cd7208a583aefb47","infoHashBuffer":{"type":"Buffer","data":[66,145,233,248,229,5,114,27,245,100,13,67,205,114,8,165,131,174,251,71]},"announce":[],"urlList":[]}}